<?xml version="1.0" encoding="UTF-8"?>
<!DOCTYPE svg PUBLIC "-//W3C//DTD SVG 1.1//EN" "http://www.w3.org/Graphics/SVG/1.1/DTD/svg11.dtd">
<svg xmlns="http://www.w3.org/2000/svg" version="1.1" width="138px" height="44px" style="shape-rendering:geometricPrecision; text-rendering:geometricPrecision; image-rendering:optimizeQuality; fill-rule:evenodd; clip-rule:evenodd" xmlns:xlink="http://www.w3.org/1999/xlink">
<g><path style="opacity:1" fill="#fdfaf4" d="M -0.5,-0.5 C 3.16667,-0.5 6.83333,-0.5 10.5,-0.5C 8.23138,0.97576 5.89805,2.47576 3.5,4C 1.87527,6.09481 0.541935,8.26148 -0.5,10.5C -0.5,6.83333 -0.5,3.16667 -0.5,-0.5 Z"/></g>
<g><path style="opacity:1" fill="#fafafa" d="M 32.5,-0.5 C 67.5,-0.5 102.5,-0.5 137.5,-0.5C 137.5,14.1667 137.5,28.8333 137.5,43.5C 102.167,43.5 66.8333,43.5 31.5,43.5C 41.1317,39.5919 45.1317,32.2585 43.5,21.5C 45.1128,11.3918 41.4461,4.05845 32.5,-0.5 Z"/></g>
<g><path style="opacity:1" fill="#d7a316" d="M 10.5,-0.5 C 17.8333,-0.5 25.1667,-0.5 32.5,-0.5C 41.4461,4.05845 45.1128,11.3918 43.5,21.5C 45.1317,32.2585 41.1317,39.5919 31.5,43.5C 24.1667,43.5 16.8333,43.5 9.5,43.5C 5.16667,41.1667 1.83333,37.8333 -0.5,33.5C -0.5,25.8333 -0.5,18.1667 -0.5,10.5C 0.541935,8.26148 1.87527,6.09481 3.5,4C 5.89805,2.47576 8.23138,0.97576 10.5,-0.5 Z"/></g>
<g><path style="opacity:1" fill="#080808" d="M 65.5,29.5 C 65.9175,30.2216 66.5842,30.7216 67.5,31C 65.1902,31.4966 62.8568,31.6633 60.5,31.5C 61.209,30.596 62.209,30.2627 63.5,30.5C 63.6657,26.1539 63.499,21.8206 63,17.5C 62.1072,18.7112 61.2739,18.7112 60.5,17.5C 61.5,15.8333 62.8333,14.5 64.5,13.5C 65.4948,18.7921 65.8282,24.1254 65.5,29.5 Z"/></g>
<g><path style="opacity:1" fill="#202020" d="M 69.5,30.5 C 69.5,29.8333 69.1667,29.5 68.5,29.5C 67.0663,22.3784 69.3996,17.045 75.5,13.5C 76.521,14.0016 76.6877,14.6683 76,15.5C 74.5,17 73,18.5 71.5,20C 78.132,19.2975 80.9654,22.1309 80,28.5C 77.0064,31.6196 73.5064,32.2863 69.5,30.5 Z"/></g>
<g><path style="opacity:1" fill="#181818" d="M 116.5,13.5 C 118.068,19.5656 119.401,25.8989 120.5,32.5C 118.076,32.8076 115.743,32.4742 113.5,31.5C 114.325,30.6143 115.325,30.281 116.5,30.5C 116.666,26.1539 116.499,21.8206 116,17.5C 115.107,18.7112 114.274,18.7112 113.5,17.5C 114.524,16.1482 115.524,14.8149 116.5,13.5 Z"/></g>
<g><path style="opacity:1" fill="#fbf4e5" d="M 4.5,15.5 C 6.95673,16.87 7.62339,18.87 6.5,21.5C 8.81182,23.6523 8.47848,25.6523 5.5,27.5C 1.94328,23.8038 1.60994,19.8038 4.5,15.5 Z"/></g>
<g><path style="opacity:1" fill="#f8edd2" d="M 27.5,14.5 C 31.6727,17.3429 31.3394,19.6763 26.5,21.5C 26.1667,21.1667 25.8333,20.8333 25.5,20.5C 26.1667,19.8333 26.8333,19.1667 27.5,18.5C 21.6524,16.7769 16.1524,17.4436 11,20.5C 10.8333,20.1667 10.6667,19.8333 10.5,19.5C 15.0921,15.6126 20.2588,14.6126 26,16.5C 27.0299,16.1639 27.5299,15.4972 27.5,14.5 Z"/></g>
<g><path style="opacity:1" fill="#fcf7ec" d="M 34.5,16.5 C 36.5,16.5 38.5,16.5 40.5,16.5C 42.405,27.3795 39.405,29.0462 31.5,21.5C 33.756,20.5791 34.756,18.9124 34.5,16.5 Z"/></g>
<g><path style="opacity:1" fill="#f2dfae" d="M 17.5,18.5 C 19.288,18.2148 20.9547,18.5481 22.5,19.5C 22.3306,21.1173 21.9972,22.784 21.5,24.5C 20.5745,23.3595 19.7412,23.3595 19,24.5C 18.3828,23.5509 18.5494,22.7175 19.5,22C 18.1772,21.1841 17.5106,20.0174 17.5,18.5 Z"/></g>
<g><path style="opacity:1" fill="#1b1b1b" d="M 93.5,12.5 C 94.3764,12.3691 95.0431,12.7025 95.5,13.5C 92.7683,19.9632 89.7683,26.2966 86.5,32.5C 85.4173,31.635 85.2506,30.635 86,29.5C 88.6028,23.8506 91.1028,18.1839 93.5,12.5 Z"/></g>
<g><path style="opacity:1" fill="#262626" d="M 50.5,13.5 C 57.0001,12.4987 59.5001,15.1653 58,21.5C 55.022,23.311 52.522,25.6443 50.5,28.5C 53.0865,29.48 55.7531,29.8134 58.5,29.5C 58.5,30.5 58.5,31.5 58.5,32.5C 54.8936,32.7892 51.3936,32.4558 48,31.5C 48.4218,26.3633 51.0885,22.6966 56,20.5C 55.6974,14.6641 53.3641,13.9974 49,18.5C 48.5,18 48,17.5 47.5,17C 48.7101,15.9609 49.7101,14.7942 50.5,13.5 Z"/></g>
<g><path style="opacity:1" fill="#f1f1f1" d="M 72.5,22.5 C 77.3276,22.3852 78.6609,24.5519 76.5,29C 70.3389,29.878 69.0055,27.7113 72.5,22.5 Z"/></g>
<g><path style="opacity:1" fill="#262626" d="M 103.5,13.5 C 110,12.4987 112.5,15.1653 111,21.5C 108.022,23.311 105.522,25.6443 103.5,28.5C 106.086,29.48 108.753,29.8134 111.5,29.5C 111.5,30.5 111.5,31.5 111.5,32.5C 107.894,32.7892 104.394,32.4558 101,31.5C 101.422,26.3633 104.088,22.6966 109,20.5C 108.697,14.6641 106.364,13.9974 102,18.5C 101.5,18 101,17.5 100.5,17C 101.71,15.9609 102.71,14.7942 103.5,13.5 Z"/></g>
<g><path style="opacity:1" fill="#171717" d="M 123.5,13.5 C 125.857,13.3367 128.19,13.5034 130.5,14C 133.1,16.459 133.1,18.959 130.5,21.5C 134.549,29.2894 132.215,32.4561 123.5,31C 121.74,30.0347 121.406,28.868 122.5,27.5C 124.789,29.5923 127.289,29.9256 130,28.5C 130.667,27.1667 130.667,25.8333 130,24.5C 122.577,22.1123 122.744,20.4457 130.5,19.5C 130.67,18.1779 130.337,17.0113 129.5,16C 127.064,16.0534 124.731,15.8867 122.5,15.5C 122.863,14.8165 123.196,14.1499 123.5,13.5 Z"/></g>
<g><path style="opacity:1" fill="#f8edd1" d="M 13.5,21.5 C 14.6527,22.3132 14.6527,23.3132 13.5,24.5C 15.5,24.8333 17.5,25.1667 19.5,25.5C 23.0202,25.4369 26.3536,24.9369 29.5,24C 27.779,25.5272 25.779,26.5272 23.5,27C 19.5272,27.2771 15.6938,27.4438 12,27.5C 8.80796,24.7983 9.30796,22.7983 13.5,21.5 Z"/></g>
<g><path style="opacity:1" fill="#838383" d="M 65.5,29.5 C 66.5,29.5 67.5,29.5 68.5,29.5C 69.1667,29.5 69.5,29.8333 69.5,30.5C 66.6543,32.6335 63.6543,32.9668 60.5,31.5C 62.8568,31.6633 65.1902,31.4966 67.5,31C 66.5842,30.7216 65.9175,30.2216 65.5,29.5 Z"/></g>
<g><path style="opacity:1" fill="#fdfcfa" d="M -0.5,33.5 C 1.83333,37.8333 5.16667,41.1667 9.5,43.5C 6.16667,43.5 2.83333,43.5 -0.5,43.5C -0.5,40.1667 -0.5,36.8333 -0.5,33.5 Z"/></g>
</svg>
