<svg id="Calque_1" data-name="Calque 1" xmlns="http://www.w3.org/2000/svg" viewBox="0 0 137 30.04"><defs><style>.cls-1{fill:#001544;}.cls-2{fill:#eb6753;}</style></defs><path class="cls-1" d="M53.74,28.67H47.49l-1,3H43.34l5.47-14.91h3.61l5.47,14.91H54.76Zm-.89-2.58-2.23-6.45-2.24,6.45Z" transform="translate(-0.5 -6.98)"/><path class="cls-1" d="M68.41,29v2.68H59.62V16.72h2.93V29Z" transform="translate(-0.5 -6.98)"/><path class="cls-1" d="M84.3,23.2v8.43H82.72l-.39-2.13a5.75,5.75,0,0,1-5,2.41,7.52,7.52,0,0,1-7.72-7.73,7.5,7.5,0,0,1,7.72-7.72,7.58,7.58,0,0,1,6,2.75l-2.43,1.6a4.52,4.52,0,0,0-3.59-1.6,4.71,4.71,0,0,0-4.77,5,4.7,4.7,0,0,0,4.77,5,4.26,4.26,0,0,0,4.52-3.43H77.53V23.2Z" transform="translate(-0.5 -6.98)"/><path class="cls-1" d="M95.87,29v2.68h-9V16.72h8.77V19.4H89.84v3.37h5.34v2.68H89.84V29ZM94.42,11.88l-2.11,3H90.1l1.41-3Z" transform="translate(-0.5 -6.98)"/><path class="cls-2" d="M107.85,19.4H104.2V31.63h-3V19.4H97.61V16.72h10.24Z" transform="translate(-0.5 -6.98)"/><path class="cls-2" d="M122.33,16.72v9.42c0,3.51-2.17,5.77-6.14,5.77S110,29.65,110,26.14V16.72h3v9c0,2.5,1.54,3.41,3.22,3.41s3.19-.91,3.19-3.41v-9Z" transform="translate(-0.5 -6.98)"/><path class="cls-2" d="M137.5,16.72V31.63h-2.67l-6.73-9.86v9.86h-2.95V16.72h2.67l6.73,9.86V16.72Z" transform="translate(-0.5 -6.98)"/><path class="cls-1" d="M25.4,8.88A15.19,15.19,0,0,0,4.54,15.22a14.82,14.82,0,0,0-1.15,3.06c-.11.41-.19.82-.26,1.24A14.39,14.39,0,0,0,2.92,22a14.77,14.77,0,0,0,.6,4.18c-1.15.83-2.8,2.36-3,4.39a4.39,4.39,0,0,0,1.62,3.9l-.65,1.08,5,.07L4.05,31.28l-.59,1A1.9,1.9,0,0,1,3,30.7a3.35,3.35,0,0,1,1.47-2.07,31,31,0,0,1,11.35-4.94l.63-.14c-.71-.58-.35-.7-.68-1.52s-.39-.77-1.25-1S14.16,21,14,20s-.66-1.36-.58-2,1-.38,1-.95.59-.36,1.26-1.1-.12-1.12.23-1.4.17-.54,0-.85c.78-.22,1.48-.46,2.13-.7A23.26,23.26,0,0,0,25.4,8.88Z" transform="translate(-0.5 -6.98)"/><path class="cls-2" d="M34.54,13.08l.91-.85-4.79-1.41,1.17,4.83.76-.72c.5,1.93-.83,3.77-1.67,4.69a13.24,13.24,0,0,1-1.49,1.24h0c-.26.19-.54.37-.83.56a1.57,1.57,0,0,0,0-.51c0-.65.3,0,.4-.44s.16-.32.17-.61a.44.44,0,0,0,0-.09s0,0,0,0,0-.09,0-.3c0-.59.24-.76-.23-.87a1.5,1.5,0,0,1-1.41-1.24c-.35-1.14-.53-.9.32-1.3s.17.59.89-.81.83-1.12.5-1.35,0-.38-.4,0-.46.72-.73.55-.36-.25-.46,0,.21.42-.27.46-.34-.07-.36-.32-.19-.29-.31-.49.14-.09.08-.47-.13-.28-.84-.41.14-.44-.63-.31a4.44,4.44,0,0,0-2.24.8,2.85,2.85,0,0,1-1,.71,2.3,2.3,0,0,1-.09.25c-.1.17-.5.12-.46.32s-.37.49-.61.63.17,0,.27.3-.08.19-.06.82-.21,1.41.07,1.5.31-.44.2.46-.31.49-.2.8.31.57,0,.83.43.63-.23,1.35-1.24.52-1.22,1.07-.9.31-1,.91.2.84.41,1.43l-1.39.33C12.1,26.71,8.3,28.78,6,31a15.17,15.17,0,0,0,27.28-9.07c0-.38,0-.76,0-1.14C34.71,18.92,36,16,34.54,13.08Z" transform="translate(-0.5 -6.98)"/></svg>