<?xml version="1.0" encoding="UTF-8"?>
<!DOCTYPE svg PUBLIC "-//W3C//DTD SVG 1.1//EN" "http://www.w3.org/Graphics/SVG/1.1/DTD/svg11.dtd">
<svg xmlns="http://www.w3.org/2000/svg" version="1.1" width="138px" height="44px" style="shape-rendering:geometricPrecision; text-rendering:geometricPrecision; image-rendering:optimizeQuality; fill-rule:evenodd; clip-rule:evenodd" xmlns:xlink="http://www.w3.org/1999/xlink">
<g><path style="opacity:0.983" fill="#d7a214" d="M 12.5,-0.5 C 21.1667,-0.5 29.8333,-0.5 38.5,-0.5C 40.0188,0.409824 41.6854,1.24316 43.5,2C 43.1667,2.33333 42.8333,2.66667 42.5,3C 43.6667,4.16667 44.8333,5.33333 46,6.5C 47.1068,5.2881 47.6068,5.62143 47.5,7.5C 46.1667,7.83333 46.1667,8.16667 47.5,8.5C 47.9887,9.99522 48.6554,11.3285 49.5,12.5C 49.5,12.8333 49.5,13.1667 49.5,13.5C 48.8333,13.5 48.5,13.8333 48.5,14.5C 48.5,15.8333 48.5,17.1667 48.5,18.5C 48.8333,18.5 49.1667,18.5 49.5,18.5C 49.5,18.8333 49.5,19.1667 49.5,19.5C 49.5,20.1667 49.8333,20.5 50.5,20.5C 50.5,20.8333 50.5,21.1667 50.5,21.5C 49.8333,21.5 49.5,21.8333 49.5,22.5C 49.5,22.8333 49.5,23.1667 49.5,23.5C 48.8333,23.5 48.5,23.8333 48.5,24.5C 48.5,26.1667 48.5,27.8333 48.5,29.5C 48.6107,30.1174 48.944,30.6174 49.5,31C 48.6619,32.1554 47.6619,33.3221 46.5,34.5C 45.8333,34.5 45.5,34.8333 45.5,35.5C 43.6011,34.955 41.9345,35.6216 40.5,37.5C 39.8333,37.5 39.5,37.8333 39.5,38.5C 38.209,38.2627 37.209,38.596 36.5,39.5C 29.1667,39.5 21.8333,39.5 14.5,39.5C 13.791,38.596 12.791,38.2627 11.5,38.5C 11.5,37.8333 11.1667,37.5 10.5,37.5C 8.10078,35.4488 5.43411,33.9488 2.5,33C 2.83333,32.6667 3.16667,32.3333 3.5,32C 1.98627,28.3622 1.3196,24.5289 1.5,20.5C 1.32545,15.008 2.15878,10.008 4,5.5C 4.33333,5.83333 4.66667,6.16667 5,6.5C 6.16667,5.33333 7.33333,4.16667 8.5,3C 8.16667,2.66667 7.83333,2.33333 7.5,2C 9.31456,1.24316 10.9812,0.409824 12.5,-0.5 Z"/></g>
<g><path style="opacity:0.004" fill="#d3a317" d="M 47.5,7.5 C 48.8333,8.16667 48.8333,8.16667 47.5,7.5 Z"/></g>
<g><path style="opacity:0.004" fill="#fbfcfb" d="M 91.5,9.5 C 92.8333,10.1667 92.8333,10.1667 91.5,9.5 Z"/></g>
<g><path style="opacity:0.004" fill="#fdfdfd" d="M 96.5,11.5 C 96.1667,11.5 95.8333,11.5 95.5,11.5C 95.1667,10.1667 94.8333,10.1667 94.5,11.5C 93.1153,10.6977 93.282,10.0311 95,9.5C 96.0299,9.83611 96.5299,10.5028 96.5,11.5 Z"/></g>
<g><path style="opacity:0.004" fill="#fcfdfc" d="M 97.5,9.5 C 98.8333,10.1667 98.8333,10.1667 97.5,9.5 Z"/></g>
<g><path style="opacity:0.361" fill="#fdfdfd" d="M 73.5,11.5 C 73.5,12.1667 73.8333,12.5 74.5,12.5C 75.1667,13.8333 75.8333,13.8333 76.5,12.5C 77.9361,12.7546 79.4361,13.0879 81,13.5C 81.2387,14.788 80.7387,15.788 79.5,16.5C 78.6043,15.4937 77.9377,15.4937 77.5,16.5C 73.5301,17.9794 73.8634,18.6461 78.5,18.5C 79.6654,20.1094 80.9988,20.4427 82.5,19.5C 83.8804,23.253 85.5471,23.753 87.5,21C 87.0426,20.586 86.7093,20.086 86.5,19.5C 88.6023,16.8735 90.269,14.5402 91.5,12.5C 92.8946,13.8146 93.8946,13.4812 94.5,11.5C 94.8333,11.5 95.1667,11.5 95.5,11.5C 95.8333,12.8333 96.1667,12.8333 96.5,11.5C 97.391,12.1098 98.391,12.4431 99.5,12.5C 99.8417,13.3382 100.508,13.6716 101.5,13.5C 101.833,14.8333 102.167,14.8333 102.5,13.5C 103.492,13.6716 104.158,13.3382 104.5,12.5C 105.5,12.5 106.5,12.5 107.5,12.5C 108.531,13.2485 109.698,13.9152 111,14.5C 112,13.1667 113,13.1667 114,14.5C 114.995,13.9341 115.828,13.2674 116.5,12.5C 117.397,13.5981 118.23,13.5981 119,12.5C 120.47,14.8769 121.97,14.8769 123.5,12.5C 124.833,12.5 126.167,12.5 127.5,12.5C 127.842,13.3382 128.508,13.6716 129.5,13.5C 129.833,14.8333 130.167,14.8333 130.5,13.5C 131.552,13.3505 132.552,13.5172 133.5,14C 133.643,16.0412 133.309,18.2079 132.5,20.5C 134.689,23.0591 134.689,25.7257 132.5,28.5C 131.105,27.1854 130.105,27.5188 129.5,29.5C 119.795,28.8687 110.128,29.202 100.5,30.5C 100.167,30.5 99.8333,30.5 99.5,30.5C 97.0001,27.9383 97.3335,25.605 100.5,23.5C 100.833,24.8333 101.167,24.8333 101.5,23.5C 102.167,23.5 102.5,23.1667 102.5,22.5C 105.167,21.5 105.167,20.5 102.5,19.5C 102.5,18.8333 102.167,18.5 101.5,18.5C 101.167,17.1667 100.833,17.1667 100.5,18.5C 99.5041,18.5858 98.6708,18.2524 98,17.5C 96.5119,21.8211 94.3453,24.9878 91.5,27C 91.5,28 91.5,29 91.5,30C 90.552,30.4828 89.552,30.6495 88.5,30.5C 88.1667,29.1667 87.8333,29.1667 87.5,30.5C 85.7497,29.7672 84.083,29.4338 82.5,29.5C 81.5,26.8333 80.5,26.8333 79.5,29.5C 69.1052,29.2728 58.7718,29.2728 48.5,29.5C 48.5,27.8333 48.5,26.1667 48.5,24.5C 49.1667,24.5 49.5,24.1667 49.5,23.5C 49.5,23.1667 49.5,22.8333 49.5,22.5C 50.1667,22.5 50.5,22.1667 50.5,21.5C 51.8333,21.1667 51.8333,20.8333 50.5,20.5C 49.8333,20.5 49.5,20.1667 49.5,19.5C 49.5,19.1667 49.5,18.8333 49.5,18.5C 49.1667,18.5 48.8333,18.5 48.5,18.5C 48.5,17.1667 48.5,15.8333 48.5,14.5C 49.1667,14.5 49.5,14.1667 49.5,13.5C 50.8333,13.1667 50.8333,12.8333 49.5,12.5C 49.9175,11.7784 50.5842,11.2784 51.5,11C 56.2316,10.8868 60.8983,10.7202 65.5,10.5C 67.7081,11.2722 67.3747,12.1055 64.5,13C 65.448,13.4828 66.448,13.6495 67.5,13.5C 67.1774,17.226 67.5108,20.8927 68.5,24.5C 68.5,20.8333 68.5,17.1667 68.5,13.5C 69.3554,12.707 70.1887,13.0403 71,14.5C 72.487,13.7471 72.6537,12.9138 71.5,12C 72.0944,11.5357 72.7611,11.369 73.5,11.5 Z M 77.5,16.5 C 77.5,17.1667 77.8333,17.5 78.5,17.5C 78.5,17.8333 78.5,18.1667 78.5,18.5C 73.8634,18.6461 73.5301,17.9794 77.5,16.5 Z M 126.5,16.5 C 127.239,16.369 127.906,16.5357 128.5,17C 127.437,18.1882 126.103,18.6882 124.5,18.5C 124.5,18.1667 124.5,17.8333 124.5,17.5C 125.492,17.6716 126.158,17.3382 126.5,16.5 Z M 61.5,17.5 C 62.4734,17.9867 63.4734,18.4867 64.5,19C 62.8425,19.7252 61.8425,19.2252 61.5,17.5 Z M 55.5,24.5 C 57.2646,25.4614 59.2646,25.7947 61.5,25.5C 61.5,25.8333 61.5,26.1667 61.5,26.5C 58.8127,26.6641 56.146,26.4974 53.5,26C 54.0442,25.2828 54.7109,24.7828 55.5,24.5 Z M 105.5,24.5 C 107.265,25.4614 109.265,25.7947 111.5,25.5C 111.5,25.8333 111.5,26.1667 111.5,26.5C 109.076,26.8076 106.743,26.4742 104.5,25.5C 104.624,24.8933 104.957,24.56 105.5,24.5 Z"/></g>
<g><path style="opacity:0.004" fill="#fcfdfc" d="M 68.5,10.5 C 69.8333,11.1667 69.8333,11.1667 68.5,10.5 Z"/></g>
<g><path style="opacity:0.006" fill="#fdfdfd" d="M 73.5,11.5 C 74.9464,10.3871 76.6131,10.2204 78.5,11C 77.5842,11.2784 76.9175,11.7784 76.5,12.5C 75.8333,12.5 75.1667,12.5 74.5,12.5C 73.8333,12.5 73.5,12.1667 73.5,11.5 Z"/></g>
<g><path style="opacity:0.004" fill="#fcfdfc" d="M 79.5,10.5 C 80.8333,11.1667 80.8333,11.1667 79.5,10.5 Z"/></g>
<g><path style="opacity:0.005" fill="#fcfcfc" d="M 107.5,12.5 C 106.5,11.1667 105.5,11.1667 104.5,12.5C 103.508,12.3284 102.842,12.6618 102.5,13.5C 102.167,13.5 101.833,13.5 101.5,13.5C 101.158,12.6618 100.492,12.3284 99.5,12.5C 101.29,11.0027 103.456,10.336 106,10.5C 107.5,10.8333 109,11.1667 110.5,11.5C 109.675,12.3857 108.675,12.719 107.5,12.5 Z"/></g>
<g><path style="opacity:0.005" fill="#fdfdfd" d="M 116.5,12.5 C 114.025,12.2533 114.025,11.5866 116.5,10.5C 117.463,10.9698 117.463,11.6365 116.5,12.5 Z"/></g>
<g><path style="opacity:0.006" fill="#fcfcfc" d="M 130.5,13.5 C 130.167,13.5 129.833,13.5 129.5,13.5C 129.158,12.6618 128.492,12.3284 127.5,12.5C 126.167,11.1667 124.833,11.1667 123.5,12.5C 122.624,12.6309 121.957,12.2975 121.5,11.5C 125.248,10.158 128.915,10.3247 132.5,12C 131.584,12.2784 130.918,12.7784 130.5,13.5 Z"/></g>
<g><path style="opacity:0.004" fill="#fdfefd" d="M 91.5,12.5 C 90.8333,11.1667 90.8333,11.1667 91.5,12.5 Z"/></g>
<g><path style="opacity:0.779" fill="#fcf9f0" d="M 8.5,16.5 C 10.3588,16.4609 11.6921,17.2942 12.5,19C 12.761,21.2033 12.261,23.37 11,25.5C 10.2155,23.714 9.04882,22.214 7.5,21C 8.38017,19.6439 8.71351,18.1439 8.5,16.5 Z"/></g>
<g><path style="opacity:0.006" fill="#fdfdfd" d="M 79.5,16.5 C 81.7929,17.3013 81.4596,17.968 78.5,18.5C 78.5,18.1667 78.5,17.8333 78.5,17.5C 79.1667,17.5 79.5,17.1667 79.5,16.5 Z"/></g>
<g><path style="opacity:0.855" fill="#f0dca5" d="M 25.5,17.5 C 26.7736,18.1894 26.7736,19.0228 25.5,20C 26.1667,20.6667 26.8333,21.3333 27.5,22C 25.8333,22.6667 24.1667,22.6667 22.5,22C 23.4581,20.8525 23.1247,19.8525 21.5,19C 23.0581,18.79 24.3915,18.29 25.5,17.5 Z"/></g>
<g><path style="opacity:0.788" fill="#f7eaca" d="M 31.5,14.5 C 35.6049,17.004 35.2716,19.004 30.5,20.5C 29.3961,19.3687 29.7295,18.5354 31.5,18C 26.0456,15.7157 20.8789,16.2157 16,19.5C 15.8333,19.1667 15.6667,18.8333 15.5,18.5C 20.3615,15.4971 25.5282,14.8304 31,16.5C 31.4643,15.9056 31.631,15.2389 31.5,14.5 Z"/></g>
<g><path style="opacity:0.782" fill="#fcf8ee" d="M 38.5,16.5 C 44.026,16.3805 45.6927,18.8805 43.5,24C 40.5254,24.7127 38.0254,23.8793 36,21.5C 36.7397,19.9492 37.573,18.2825 38.5,16.5 Z"/></g>
<g><path style="opacity:0.004" fill="#fcfdfc" d="M 82.5,18.5 C 83.8333,19.1667 83.8333,19.1667 82.5,18.5 Z"/></g>
<g><path style="opacity:0.004" fill="#fdfdfd" d="M 100.5,18.5 C 100.833,18.5 101.167,18.5 101.5,18.5C 102.167,18.5 102.5,18.8333 102.5,19.5C 102.158,20.3382 101.492,20.6716 100.5,20.5C 100.5,19.8333 100.5,19.1667 100.5,18.5 Z"/></g>
<g><path style="opacity:0.004" fill="#fcfdfc" d="M 99.5,20.5 C 98.8333,19.1667 98.8333,19.1667 99.5,20.5 Z"/></g>
<g><path style="opacity:0.004" fill="#fcfcfc" d="M 99.5,20.5 C 99.8333,20.5 100.167,20.5 100.5,20.5C 101.167,21.1667 101.833,21.8333 102.5,22.5C 101.833,22.5 101.5,22.8333 101.5,23.5C 101.167,23.5 100.833,23.5 100.5,23.5C 99.8902,22.609 99.5569,21.609 99.5,20.5 Z"/></g>
<g><path style="opacity:0.01" fill="#fdfdfd" d="M 57.5,23.5 C 58.9643,24.4054 60.2976,24.4054 61.5,23.5C 61.5,24.1667 61.5,24.8333 61.5,25.5C 59.2646,25.7947 57.2646,25.4614 55.5,24.5C 56.4916,24.6716 57.1583,24.3382 57.5,23.5 Z"/></g>
<g><path style="opacity:0.835" fill="#f6eaca" d="M 17.5,20.5 C 19.8418,20.7748 19.8418,21.6081 17.5,23C 21.7835,24.6629 26.1168,24.9962 30.5,24C 26.5399,25.6634 22.5399,25.8301 18.5,24.5C 16.7752,26.7477 15.4419,26.2477 14.5,23C 15.5707,22.1482 16.5707,21.3149 17.5,20.5 Z"/></g>
<g><path style="opacity:0.004" fill="#fdfefd" d="M 132.5,28.5 C 133.833,29.1667 133.833,29.1667 132.5,28.5 Z"/></g>
<g><path style="opacity:0.007" fill="#fdfdfd" d="M 79.5,29.5 C 80.1667,29.8333 80.8333,30.1667 81.5,30.5C 78.2635,32.5805 74.9301,32.7472 71.5,31C 74.3647,30.8171 77.0314,30.3171 79.5,29.5 Z"/></g>
<g><path style="opacity:0.004" fill="#fefffe" d="M 82.5,29.5 C 81.8333,30.1667 81.8333,30.1667 82.5,29.5 Z"/></g>
<g><path style="opacity:0.008" fill="#fdfdfd" d="M 129.5,29.5 C 130.167,29.8333 130.833,30.1667 131.5,30.5C 128.325,32.6168 124.992,32.7834 121.5,31C 124.365,30.8171 127.031,30.3171 129.5,29.5 Z"/></g>
<g><path style="opacity:0.004" fill="#fdfefd" d="M 132.5,29.5 C 131.833,30.1667 131.833,30.1667 132.5,29.5 Z"/></g>
<g><path style="opacity:0.006" fill="#fdfdfd" d="M 50.5,30.5 C 57.175,30.3337 63.8417,30.5004 70.5,31C 69.228,32.0463 67.728,32.5463 66,32.5C 62.8111,31.8676 59.4778,31.8676 56,32.5C 53.7047,32.4535 51.8714,31.7868 50.5,30.5 Z"/></g>
<g><path style="opacity:0.005" fill="#fdfdfd" d="M 87.5,30.5 C 87.8333,30.5 88.1667,30.5 88.5,30.5C 88.1575,32.2252 87.1575,32.7252 85.5,32C 86.4158,31.7216 87.0825,31.2216 87.5,30.5 Z"/></g>
<g><path style="opacity:0.004" fill="#fefffe" d="M 99.5,30.5 C 98.8333,31.1667 98.8333,31.1667 99.5,30.5 Z"/></g>
<g><path style="opacity:0.007" fill="#fcfcfc" d="M 100.5,30.5 C 107.175,30.3337 113.842,30.5004 120.5,31C 119.228,32.0463 117.728,32.5463 116,32.5C 112.811,31.8676 109.478,31.8676 106,32.5C 103.705,32.4535 101.871,31.7868 100.5,30.5 Z"/></g>
<g><path style="opacity:0.004" fill="#fcfdfc" d="M 83.5,31.5 C 84.8333,32.1667 84.8333,32.1667 83.5,31.5 Z"/></g>
<g><path style="opacity:0.004" fill="#fcfdfc" d="M 89.5,31.5 C 90.8333,32.1667 90.8333,32.1667 89.5,31.5 Z"/></g>
<g><path style="opacity:0.004" fill="#d3a316" d="M 46.5,34.5 C 47.8333,35.1667 47.8333,35.1667 46.5,34.5 Z"/></g>
<g><path style="opacity:0.004" fill="#d5a20e" d="M 45.5,35.5 C 45.8333,35.5 46.1667,35.5 46.5,35.5C 46.3147,36.1701 45.9813,36.1701 45.5,35.5 Z"/></g>
<g><path style="opacity:0.004" fill="#d5a20b" d="M 45.5,36.5 C 44.8333,37.1667 44.8333,37.1667 45.5,36.5 Z"/></g>
<g><path style="opacity:0.004" fill="#d5a20f" d="M 44.5,37.5 C 43.8333,38.1667 43.8333,38.1667 44.5,37.5 Z"/></g>
<g><path style="opacity:0.016" fill="#d5a10f" d="M 10.5,37.5 C 11.1667,37.5 11.5,37.8333 11.5,38.5C 12.209,39.404 13.209,39.7373 14.5,39.5C 21.8333,40.8333 29.1667,40.8333 36.5,39.5C 37.791,39.7373 38.791,39.404 39.5,38.5C 40.1667,38.5 40.5,38.1667 40.5,37.5C 41.609,37.5569 42.609,37.8902 43.5,38.5C 42.3998,39.5585 41.0664,40.3918 39.5,41C 30.1667,41.6667 20.8333,41.6667 11.5,41C 10.1667,40.3333 8.83333,39.6667 7.5,39C 8.24382,37.9614 9.24382,37.4614 10.5,37.5 Z"/></g>
</svg>
